<svg xmlns="http://www.w3.org/2000/svg" fill="none" viewBox="0 0 687 101" height="101" width="687">
<path fill="#1A1A1A" d="M15.4732 28.7884C18.7002 32.4088 24.3135 36.0293 33.816 39.8356C47.6493 45.4905 56.0902 50.3906 61.0727 55.5314C66.1078 60.716 67.6425 66.1302 67.6425 72.7694C67.6425 81.2135 64.2998 88.3559 58.2031 93.3435C52.2955 98.189 43.8021 100.989 33.2904 100.989C26.8678 100.989 21.1705 99.0531 16.3141 97.4124C12.7506 96.1983 9.62868 95.1483 7.06384 95.1483C5.43453 95.1483 4.23617 95.7718 3.35319 96.6577C2.44919 97.5656 1.82903 98.7796 1.37702 99.9281L1.28242 100.169H0V68.3615H1.32445L1.38751 68.6568C3.36371 77.1774 7.10588 85.698 13.2342 91.6263C18.2167 96.4499 24.7865 99.5562 33.2799 99.5562C40.617 99.5562 46.6087 97.7077 50.7082 94.131C54.6501 90.6966 56.8681 85.6324 56.8681 79.0478C56.8681 67.2349 46.7243 62.7285 33.385 56.7893C31.6085 56.0018 29.769 55.1814 27.919 54.3283C18.9105 50.2703 12.3932 46.5952 8.10448 42.1544C3.78419 37.6699 1.74491 32.4416 1.74491 25.2992C1.74491 18.0584 4.96149 11.7582 10.2383 7.26274C15.5572 2.7126 22.9785 0 31.2827 0C38.336 0 42.6563 2.06726 46.1251 3.72981C48.3851 4.81265 50.2773 5.70955 52.285 5.70955C53.9353 5.70955 54.9339 5.39237 55.6382 4.80173C56.3425 4.21108 56.7945 3.30324 57.3096 2.1657L57.4042 1.94693H58.6656V27.2133H57.4778L57.4042 26.929C55.4805 18.9116 52.306 12.3379 47.7229 7.88621C43.4972 3.77358 38.0522 1.45475 31.2617 1.45475C24.9442 1.45475 20.2034 3.19385 16.9448 5.91737C13.2132 9.02372 11.4262 13.4207 11.4262 17.9271C11.4262 21.6679 12.2776 25.2445 15.4626 28.8103L15.4732 28.7884ZM188.485 1.76101V2.8329H176.312V98.1452H188.485V99.6H150.558V98.1452H162.731V49.8875H117.026V98.1452H129.199V99.6H91.3989V98.1452H103.445V2.8329H91.3989V1.37818H129.199V2.8329H117.026V48.4437H162.731V2.8329H150.558V1.37818H188.485V1.76101ZM249.389 1.76101V2.8329H237.343V98.1452H249.389V99.6H211.589V98.1452H223.762V2.8329H211.589V1.37818H249.389V1.76101ZM381.741 1.76101V2.8329H369.569V98.1452H381.741V99.6H343.941V98.1452H355.988V5.21737L321.678 99.6H320.238L285.928 5.76426V98.1452H297.974V99.6H272.494V98.1452H284.54V2.8329H272.494V1.37818H297.858L327.175 80.4806L355.967 1.37818H381.741V1.76101ZM469.84 1.37818H495.089V2.8329H482.916V68.1756C482.916 78.9275 479.931 86.9449 474.738 92.381C469.188 98.1781 461.136 101 451.507 101C441.059 101 432.45 98.9218 426.437 93.7045C420.414 88.4762 417.019 80.1306 417.019 67.6177V2.8329H404.846V1.37818H442.646V2.8329H430.6V67.6177C430.6 77.9102 432.155 85.8839 435.719 91.2653C439.261 96.603 444.811 99.4031 452.853 99.4031C461.956 99.4031 469.114 96.5374 473.992 91.2216C478.901 85.8839 481.518 78.0524 481.518 68.1756V2.8329H469.472V1.37818H469.84ZM581.999 90.5872C586.309 85.2605 588.558 77.6259 588.979 69.2694L589 68.9084H590.377V99.6H519.265L572.928 2.8329H551.747C544.241 2.8329 538.397 5.23925 534.161 9.28625C529.514 13.727 526.781 20.1585 525.877 27.5634L525.835 27.8915H524.616V1.37818H589.441L535.779 98.1452H565.653C572.812 98.1452 578.204 95.2576 581.989 90.5872H581.999ZM678.622 90.5872C682.932 85.2605 685.182 77.6259 685.602 69.2694L685.623 68.9084H687V99.6H615.889L669.551 2.8329H648.37C640.864 2.8329 635.02 5.23925 630.784 9.28625C626.138 13.727 623.404 20.1585 622.5 27.5634L622.458 27.8915H621.239V1.37818H686.065L632.402 98.1452H662.277C669.435 98.1452 674.828 95.2576 678.612 90.5872H678.622Z"></path>
</svg>
